<svg width="14" height="17" viewBox="0 0 14 17" fill="none" xmlns="http://www.w3.org/2000/svg">
<path d="M13.0728 5.52137C12.9798 5.59367 11.348 6.51287 11.348 8.55777C11.348 10.9229 13.4239 11.7595 13.4859 11.7801C13.4756 11.8317 13.1554 12.9265 12.3911 14.0419C11.7095 15.0231 10.9968 16.0042 9.91242 16.0042C8.82802 16.0042 8.54912 15.3742 7.29942 15.3742C6.08072 15.3742 5.64692 16.0249 4.65542 16.0249C3.66392 16.0249 2.97192 15.116 2.17672 14.0006C1.25752 12.6889 0.513916 10.6543 0.513916 8.72297C0.513916 5.62457 2.52792 3.98237 4.51082 3.98237C5.56432 3.98237 6.44212 4.67437 7.10312 4.67437C7.73312 4.67437 8.71432 3.94107 9.91232 3.94107C10.3668 3.94117 11.9987 3.98257 13.0728 5.52137ZM9.34442 2.62957C9.84012 2.04087 10.1913 1.22497 10.1913 0.409067C10.1913 0.295467 10.181 0.181867 10.1603 0.0888672C9.35472 0.119867 8.39422 0.625968 7.81582 1.29727C7.36142 1.81367 6.93792 2.62957 6.93792 3.45587C6.93792 3.57977 6.95862 3.70377 6.96892 3.74507C7.02052 3.75537 7.10322 3.76577 7.18582 3.76577C7.90882 3.76567 8.81762 3.28027 9.34442 2.62957Z" fill="white"/>
</svg>
