<svg width="39" height="47" viewBox="0 0 39 47" fill="none" xmlns="http://www.w3.org/2000/svg">
<path d="M16.4696 47.0003H5.84432H5.47432C5.37592 47.0003 5.27815 47 5.18102 46.9993C4.66965 47.0084 4.15854 46.9701 3.65422 46.885C3.30912 46.8202 2.9748 46.7074 2.66102 46.5498C2.03832 46.2339 1.53236 45.728 1.21642 45.1053C1.05879 44.7916 0.946019 44.4573 0.881422 44.1122C0.790801 43.5592 0.752232 42.999 0.766222 42.4388V42.1455C0.766222 42.0714 0.766222 41.9967 0.766222 41.9216V9.07901C0.766222 9.00381 0.766222 8.92918 0.766222 8.85511C0.766222 8.75657 0.766222 8.65881 0.766222 8.56181C0.752235 8.00163 0.790804 7.44138 0.881422 6.88841C0.946034 6.54332 1.0588 6.20902 1.21642 5.89531C1.53231 5.27275 2.03816 4.7669 2.66072 4.45101C2.9745 4.29341 3.30882 4.18058 3.65392 4.11581C4.00828 4.05129 4.36729 4.01567 4.72742 4.00931C4.98962 4.00121 5.31922 4.00031 5.61802 4.00031H5.84432H14.7169C14.7115 4.18951 14.7037 4.37771 14.703 4.56931V4.72151V4.86431V5.00031H5.84432H5.73572H5.61802C5.32972 5.00031 5.01132 5.00091 4.75802 5.00881C4.45201 5.01332 4.14689 5.04292 3.84572 5.09731C3.59179 5.14419 3.34574 5.22663 3.11482 5.34221C2.68032 5.56211 2.32735 5.91497 2.10732 6.34941C1.99196 6.58005 1.90969 6.8258 1.86292 7.07941C1.78509 7.57055 1.75272 8.06782 1.76622 8.56491V8.85491V9.07881V41.9216V42.1421V42.438C1.75279 42.934 1.78516 43.4302 1.86292 43.9203C1.90959 44.1743 1.99194 44.4205 2.10752 44.6514C2.32731 45.0859 2.68017 45.4387 3.11462 45.6585C3.34555 45.774 3.5916 45.8564 3.84552 45.9033C4.28915 45.9757 4.73841 46.0077 5.18782 45.9991L5.47492 46.0003H5.84432H15.5357C15.7814 46.3893 16.0981 46.7285 16.4693 47.0003H16.4696ZM13.3521 5.58661C13.5944 5.58661 13.8269 5.68287 13.9982 5.85422C14.1696 6.02558 14.2658 6.25798 14.2658 6.50031C14.2658 6.74264 14.1696 6.97504 13.9982 7.14639C13.8269 7.31774 13.5944 7.41401 13.3521 7.41401H9.17952C8.93719 7.41401 8.70479 7.31774 8.53344 7.14639C8.36209 6.97504 8.26582 6.74264 8.26582 6.50031C8.26582 6.25798 8.36209 6.02558 8.53344 5.85422C8.70479 5.68287 8.93719 5.58661 9.17952 5.58661H13.3521ZM13.4044 6.05031C13.3154 6.05031 13.2284 6.0767 13.1544 6.12615C13.0804 6.17559 13.0227 6.24587 12.9887 6.3281C12.9546 6.41033 12.9457 6.50081 12.9631 6.5881C12.9804 6.67539 13.0233 6.75557 13.0862 6.81851C13.1492 6.88144 13.2293 6.9243 13.3166 6.94166C13.4039 6.95903 13.4944 6.95011 13.5766 6.91605C13.6589 6.88199 13.7291 6.82432 13.7786 6.75032C13.828 6.67631 13.8544 6.58931 13.8544 6.50031C13.8544 6.38096 13.807 6.2665 13.7226 6.18211C13.6382 6.09772 13.5238 6.05031 13.4044 6.05031ZM30.2657 2.50031C30.2657 2.74261 30.1694 2.97498 29.9981 3.14633C29.8268 3.31767 29.5944 3.41396 29.3521 3.41401H25.1795C24.9372 3.41401 24.7048 3.31774 24.5334 3.14639C24.3621 2.97504 24.2658 2.74264 24.2658 2.50031C24.2658 2.25798 24.3621 2.02558 24.5334 1.85422C24.7048 1.68287 24.9372 1.58661 25.1795 1.58661H29.3521C29.5944 1.58663 29.8268 1.68291 29.9981 1.85426C30.1695 2.02561 30.2657 2.258 30.2657 2.50031ZM29.8541 2.50031C29.8541 2.41131 29.8277 2.3243 29.7783 2.2503C29.7288 2.1763 29.6586 2.11862 29.5763 2.08456C29.4941 2.0505 29.4036 2.04159 29.3163 2.05895C29.229 2.07632 29.1489 2.11918 29.0859 2.18211C29.023 2.24504 28.9801 2.32523 28.9628 2.41252C28.9454 2.49981 28.9543 2.59029 28.9884 2.67252C29.0224 2.75474 29.0801 2.82502 29.1541 2.87447C29.2281 2.92392 29.3151 2.95031 29.4041 2.95031C29.5235 2.95031 29.6379 2.9029 29.7223 2.81851C29.8067 2.73412 29.8541 2.61966 29.8541 2.50031ZM38.7657 4.86691V42.1337C38.7657 42.2325 38.7657 42.3304 38.7652 42.4277C38.7794 42.9892 38.7408 43.5509 38.65 44.1052C38.585 44.4511 38.4718 44.7861 38.3138 45.1006C37.9973 45.7249 37.4901 46.2321 36.8657 46.5485C36.5513 46.7065 36.2163 46.8197 35.8704 46.8845C35.5152 46.9492 35.1553 46.9849 34.7942 46.9913C34.532 46.9994 34.2024 47.0003 33.9036 47.0003H33.6743H20.8568H20.4857C20.387 47.0003 20.289 47 20.1917 46.9993C19.7683 46.9997 19.3453 46.9721 18.9254 46.9169C18.8377 46.9046 18.7476 46.9015 18.6612 46.8847C18.3154 46.8199 17.9803 46.7067 17.6659 46.5487C17.3846 46.4038 17.1256 46.2191 16.8968 46.0003C16.8741 45.979 16.848 45.962 16.826 45.9403C16.5803 45.6943 16.375 45.411 16.2176 45.101C16.0596 44.7865 15.9464 44.4515 15.8814 44.1056C15.7905 43.5512 15.7517 42.9894 15.7657 42.4277C15.7657 42.3304 15.7657 42.2325 15.7657 42.1337V4.86691C15.7657 4.76801 15.7657 4.67011 15.7657 4.57281C15.7664 4.38101 15.773 4.19091 15.7784 4.00041C15.7826 3.62987 15.8169 3.26029 15.8809 2.89531C15.9461 2.54955 16.0595 2.21462 16.2176 1.90031C16.5339 1.27578 17.0412 0.768449 17.6657 0.452108C17.9801 0.29407 18.3152 0.180965 18.661 0.116108C19.0163 0.0514038 19.3762 0.0156863 19.7372 0.00930837C19.9994 0.00120837 20.329 0.000308307 20.6278 0.000308307H20.8571H33.6746H33.8614H34.0457C34.1443 0.000308307 34.2422 0.000308234 34.3399 0.00130823C34.8524 -0.007789 35.3645 0.0305749 35.8699 0.115908C36.2158 0.180765 36.5508 0.29387 36.8652 0.451908C37.4899 0.768215 37.9974 1.27563 38.3138 1.90031C38.4718 2.21475 38.585 2.54977 38.65 2.89561C38.7409 3.44983 38.7797 4.01135 38.7657 4.57281V4.86691ZM37.7657 4.86691V4.71811V4.57531C37.7793 4.07732 37.7469 3.57915 37.669 3.08711C37.6219 2.83243 37.5393 2.58565 37.4234 2.35401C37.2028 1.91789 36.8486 1.56369 36.4124 1.34311C36.1809 1.22727 35.9341 1.14463 35.6795 1.09761C35.2348 1.02502 34.7844 0.992851 34.3338 1.00151L34.045 1.00031H33.8614H33.7689H20.8568H20.7468H20.6279C20.3393 1.00031 20.0212 1.00101 19.7679 1.00881C19.4608 1.01327 19.1546 1.04297 18.8524 1.09761C18.5977 1.14466 18.3509 1.22734 18.1192 1.34321C17.6833 1.5635 17.3292 1.91739 17.1087 2.35321C16.9927 2.58508 16.91 2.83214 16.8629 3.08711C16.8108 3.38881 16.7825 3.69416 16.7784 4.00031C16.7725 4.18731 16.7669 4.37351 16.7662 4.57611V4.72401V4.86921V42.1337V42.2765V42.4252C16.7527 42.9232 16.785 43.4213 16.8629 43.9133C16.91 44.168 16.9927 44.4149 17.1085 44.6466C17.329 45.0826 17.6831 45.4367 18.119 45.6573C18.3507 45.7732 18.5976 45.8559 18.8524 45.903C18.8717 45.9068 18.8931 45.9066 18.9124 45.9101C19.3377 45.9752 19.7676 46.0049 20.1978 45.9991L20.4859 46.0001H20.8565H33.785H33.9039C34.1925 46.0001 34.5106 45.9994 34.7639 45.9916C35.071 45.987 35.3772 45.9573 35.6794 45.9028C35.9341 45.8558 36.181 45.7731 36.4126 45.6572C36.8483 45.4365 37.2022 45.0824 37.4226 44.6466C37.5386 44.4148 37.6214 44.1677 37.6684 43.9128C37.7465 43.4207 37.7791 42.9224 37.7657 42.4243V42.2825V42.1312V4.86691Z" fill="#1D1D1F"/>
</svg>
