<svg width="46" height="37" viewBox="0 0 46 37" fill="none" xmlns="http://www.w3.org/2000/svg">
<path d="M14.7656 0H5.76562C4.30747 0.00174664 2.90954 0.58177 1.87847 1.61284C0.847395 2.64391 0.267372 4.04185 0.265625 5.5L0.265625 31.5C0.267451 32.9581 0.8475 34.356 1.87855 35.3871C2.90961 36.4181 4.30749 36.9982 5.76562 37H14.7656C16.2238 36.9982 17.6216 36.4181 18.6527 35.3871C19.6838 34.356 20.2638 32.9581 20.2656 31.5V5.5C20.2639 4.04185 19.6839 2.64391 18.6528 1.61284C17.6217 0.58177 16.2238 0.00174664 14.7656 0ZM18.2656 31.5C18.2645 32.4279 17.8954 33.3175 17.2393 33.9736C16.5831 34.6298 15.6935 34.9989 14.7656 35H5.76562C4.83771 34.9989 3.94812 34.6298 3.29198 33.9736C2.63584 33.3175 2.26674 32.4279 2.26562 31.5V5.5C2.26674 4.57208 2.63584 3.68249 3.29198 3.02635C3.94812 2.37022 4.83771 2.00111 5.76562 2H14.7656C15.6935 2.00111 16.5831 2.37022 17.2393 3.02635C17.8954 3.68249 18.2645 4.57208 18.2656 5.5V31.5ZM44.2656 23.5H45.2656V29.5H44.2656V23.5ZM32.2656 0H38.2656V1H32.2656V0ZM44.2656 15.5H45.2656V21.5H44.2656V15.5ZM32.2656 36H38.2656V37H32.2656V36ZM26.2656 21.5H25.2656V15.5H26.2656V21.5ZM26.2656 13.5H25.2656V7.5H26.2656V13.5ZM26.2656 29.5H25.2656V23.5H26.2656V29.5ZM40.2656 1.05V0.0253C41.6312 0.151233 42.9005 0.782244 43.8253 1.79483C44.7501 2.80741 45.2637 4.12867 45.2656 5.5H44.2656C44.2635 4.39596 43.8543 3.33148 43.1162 2.5104C42.3782 1.68931 41.3632 1.16932 40.2656 1.05ZM44.2656 31.5H45.2656C45.2637 32.8713 44.7501 34.1926 43.8253 35.2052C42.9005 36.2178 41.6312 36.8488 40.2656 36.9747V35.95C41.3632 35.8307 42.3782 35.3107 43.1162 34.4896C43.8543 33.6685 44.2635 32.604 44.2656 31.5ZM30.2656 0.0253V1.05C29.1681 1.16932 28.1531 1.68931 27.415 2.5104C26.6769 3.33148 26.2677 4.39596 26.2656 5.5H25.2656C25.2675 4.12867 25.7811 2.80741 26.7059 1.79483C27.6307 0.782244 28.9001 0.151233 30.2656 0.0253ZM30.2656 35.95V36.9751C28.9 36.8492 27.6306 36.2181 26.7058 35.2054C25.781 34.1928 25.2674 32.8714 25.2656 31.5H26.2656C26.2677 32.604 26.6769 33.6685 27.415 34.4896C28.1531 35.3107 29.1681 35.8307 30.2656 35.95ZM44.2656 7.5H45.2656V13.5H44.2656V7.5Z" fill="#1D1D1F"/>
</svg>
