<svg width="23" height="44" viewBox="0 0 23 44" fill="none" xmlns="http://www.w3.org/2000/svg">
<path d="M19.25 0H3.25C2.45435 0 1.69129 0.316071 1.12868 0.87868C0.56607 1.44129 0.25 2.20435 0.25 3L0.25 41C0.25 41.7957 0.56607 42.5587 1.12868 43.1213C1.69129 43.6839 2.45435 44 3.25 44H19.25C20.0456 44 20.8087 43.6839 21.3713 43.1213C21.9339 42.5587 22.25 41.7957 22.25 41V3C22.25 2.20435 21.9339 1.44129 21.3713 0.87868C20.8087 0.316071 20.0456 0 19.25 0ZM21.25 41C21.2494 41.5302 21.0385 42.0386 20.6635 42.4135C20.2886 42.7885 19.7802 42.9994 19.25 43H3.25C2.71975 42.9994 2.2114 42.7885 1.83646 42.4135C1.46152 42.0386 1.25061 41.5302 1.25 41V3C1.25061 2.46975 1.46152 1.9614 1.83646 1.58646C2.2114 1.21152 2.71975 1.00061 3.25 1H5.875C6.00002 0.99565 6.12166 1.04105 6.21325 1.12625C6.30484 1.21145 6.35891 1.3295 6.3636 1.4545V2.0709C6.37201 2.32302 6.47919 2.56174 6.66202 2.73555C6.84485 2.90936 7.08867 3.00434 7.3409 3H15.1591C15.4113 3.00434 15.6551 2.90936 15.838 2.73555C16.0208 2.56174 16.128 2.32302 16.1364 2.0709V1.4545C16.1411 1.3295 16.1952 1.21145 16.2868 1.12625C16.3783 1.04105 16.5 0.99565 16.625 1H19.25C19.7802 1.00061 20.2886 1.21152 20.6635 1.58646C21.0385 1.9614 21.2494 2.46975 21.25 3V41ZM14.003 1.5057C14.0023 1.57005 13.9825 1.63274 13.9462 1.68588C13.9099 1.73902 13.8587 1.78024 13.799 1.80435C13.7394 1.82845 13.6739 1.83437 13.6109 1.82136C13.5478 1.80835 13.4901 1.77699 13.4448 1.73122C13.3996 1.68545 13.3689 1.62732 13.3566 1.56415C13.3443 1.50098 13.351 1.43559 13.3758 1.37621C13.4006 1.31682 13.4424 1.2661 13.496 1.23042C13.5495 1.19474 13.6124 1.1757 13.6768 1.1757C13.7199 1.17595 13.7625 1.18468 13.8022 1.2014C13.8419 1.21812 13.878 1.2425 13.9082 1.27314C13.9385 1.30378 13.9625 1.34009 13.9788 1.38C13.995 1.4199 14.0033 1.46261 14.003 1.5057ZM12.8563 1.5057C12.8565 1.53834 12.8503 1.5707 12.8379 1.60093C12.8256 1.63117 12.8075 1.65868 12.7845 1.68189C12.7616 1.70511 12.7343 1.72358 12.7042 1.73624C12.6741 1.7489 12.6418 1.75552 12.6092 1.7557H10.6322C10.5659 1.7557 10.5023 1.72936 10.4554 1.68248C10.4085 1.63559 10.3822 1.572 10.3822 1.5057C10.3822 1.4394 10.4085 1.37581 10.4554 1.32892C10.5023 1.28204 10.5659 1.2557 10.6322 1.2557H12.6092C12.6751 1.2561 12.7382 1.28266 12.7845 1.32954C12.8309 1.37642 12.8567 1.43978 12.8563 1.5057Z" fill="#1D1D1F"/>
</svg>
