<svg width="20" height="40" viewBox="0 0 20 40" fill="none" xmlns="http://www.w3.org/2000/svg">
<path d="M16.6406 0H3.64062C2.84571 0.00237409 2.08402 0.319207 1.52193 0.881302C0.959832 1.4434 0.642999 2.20508 0.640625 3L0.640625 37C0.642999 37.7949 0.959832 38.5566 1.52193 39.1187C2.08402 39.6808 2.84571 39.9976 3.64062 40H16.6406C17.4355 39.9976 18.1972 39.6808 18.7593 39.1187C19.3214 38.5566 19.6383 37.7949 19.6406 37V3C19.6383 2.20508 19.3214 1.4434 18.7593 0.881302C18.1972 0.319207 17.4355 0.00237409 16.6406 0ZM7.89062 2.25H12.3906C12.4569 2.25 12.5205 2.27634 12.5674 2.32322C12.6143 2.37011 12.6406 2.4337 12.6406 2.5C12.6406 2.5663 12.6143 2.62989 12.5674 2.67678C12.5205 2.72366 12.4569 2.75 12.3906 2.75H7.89062C7.82432 2.75 7.76073 2.72366 7.71385 2.67678C7.66696 2.62989 7.64062 2.5663 7.64062 2.5C7.64062 2.4337 7.66696 2.37011 7.71385 2.32322C7.76073 2.27634 7.82432 2.25 7.89062 2.25ZM6.14062 2.125C6.21479 2.125 6.2873 2.14699 6.34896 2.1882C6.41063 2.2294 6.4587 2.28797 6.48708 2.35649C6.51546 2.42502 6.52289 2.50042 6.50842 2.57316C6.49395 2.6459 6.45823 2.71272 6.40579 2.76517C6.35335 2.81761 6.28653 2.85332 6.21378 2.86779C6.14104 2.88226 6.06564 2.87484 5.99712 2.84645C5.9286 2.81807 5.87003 2.77001 5.82882 2.70834C5.78762 2.64667 5.76562 2.57417 5.76562 2.5C5.76562 2.40054 5.80513 2.30516 5.87546 2.23483C5.94579 2.16451 6.04117 2.125 6.14062 2.125ZM10.1406 39.25C9.79451 39.25 9.45616 39.1474 9.16838 38.9551C8.88059 38.7628 8.65629 38.4895 8.52384 38.1697C8.39138 37.8499 8.35673 37.4981 8.42425 37.1586C8.49177 36.8191 8.65845 36.5073 8.90319 36.2626C9.14793 36.0178 9.45975 35.8512 9.79922 35.7836C10.1387 35.7161 10.4906 35.7508 10.8103 35.8832C11.1301 36.0157 11.4034 36.24 11.5957 36.5278C11.788 36.8155 11.8906 37.1539 11.8906 37.5C11.8906 37.9641 11.7063 38.4092 11.3781 38.7374C11.0499 39.0656 10.6048 39.25 10.1406 39.25ZM18.6406 35H1.64062V5H18.6406V35Z" fill="#1D1D1F"/>
</svg>
