<svg width="14" height="15" viewBox="0 0 14 15" fill="none" xmlns="http://www.w3.org/2000/svg">
<path d="M13.1989 13.3428L9.69891 9.84283C10.5806 8.763 11.0138 7.38571 10.9088 5.9956C10.8039 4.60548 10.1689 3.30881 9.13512 2.37357C8.10132 1.43833 6.74772 0.936 5.35408 0.970408C3.96044 1.00482 2.63328 1.57333 1.64689 2.55845C0.6605 3.54357 0.0902815 4.87 0.0540811 6.26359C0.0178807 7.65719 0.518465 9.01143 1.45238 10.0464C2.38629 11.0814 3.68214 11.7181 5.07212 11.8248C6.4621 11.9315 7.83995 11.5001 8.92091 10.6198L12.4209 14.1198C12.472 14.1709 12.5326 14.2114 12.5994 14.2391C12.6661 14.2667 12.7377 14.281 12.8099 14.281C12.8822 14.281 12.9537 14.2667 13.0204 14.2391C13.0872 14.2114 13.1478 14.1709 13.1989 14.1198C13.25 14.0687 13.2905 14.0081 13.3182 13.9414C13.3458 13.8746 13.36 13.8031 13.36 13.7308C13.36 13.6586 13.3458 13.5871 13.3182 13.5203C13.2905 13.4536 13.25 13.3929 13.1989 13.3418V13.3428ZM1.17791 6.41783C1.17811 5.56366 1.43158 4.72872 1.90628 4.0186C2.38098 3.30847 3.05558 2.75505 3.84479 2.42831C4.63401 2.10157 5.50238 2.01618 6.34012 2.18294C7.17786 2.34971 7.94734 2.76113 8.55126 3.36519C9.15518 3.96926 9.56643 4.73883 9.733 5.57661C9.89956 6.41438 9.81398 7.28274 9.48705 8.07187C9.16013 8.86101 8.60655 9.53549 7.89632 10.01C7.18608 10.4846 6.35109 10.7378 5.49691 10.7378C4.35159 10.7368 3.2535 10.2813 2.44373 9.4713C1.63397 8.66135 1.17871 7.56315 1.17791 6.41783Z" fill="white"/>
</svg>
